PathFileType	4	(X/Y/Z)	Walk5.trc
DataRate	CameraRate	NumFrames	NumMarkers	Units	OrigDataRate	OrigDataStartFrame	OrigNumFrames
200.000000	200.000000	6	59	mm	200.000000	498	541
Frame#	Times		LFHD		RFHD		CLAV		STRN		LASI		RASI		RACR1		RUA1		RElbow		RFA1		RWRR		RWRU		RCAR		LACR1		LUA1		LElbow		LFA1		LWRR		LWRU		LCAR		RTH3		RTH2		RMFC		RTB1		RTB3		RTB2		RTB4		LTH1		LTH3		LTH2		LMFC		LTB1		LTB2		LTB4		LMT1		RTH4		RToe		RMT1		LTH4		RTH1		RLFC		RElbowM		RMMAL		LMT5		RBHD		LTB3		RCAL		LToe		LLFC		RBack		RPSI		C7		LMMAL		T10		LPSI		LLMAL		LCAL		LBHD		LElbowM
			X1	Y1	Z1	X2	Y2	Z2	X3	Y3	Z3	X4	Y4	Z4	X5	Y5	Z5	X6	Y6	Z6	X7	Y7	Z7	X8	Y8	Z8	X9	Y9	Z9	X10	Y10	Z10	X11	Y11	Z11	X12	Y12	Z12	X13	Y13	Z13	X14	Y14	Z14	X15	Y15	Z15	X16	Y16	Z16	X17	Y17	Z17	X18	Y18	Z18	X19	Y19	Z19	X20	Y20	Z20	X21	Y21	Z21	X22	Y22	Z22	X23	Y23	Z23	X24	Y24	Z24	X25	Y25	Z25	X26	Y26	Z26	X27	Y27	Z27	X28	Y28	Z28	X29	Y29	Z29	X30	Y30	Z30	X31	Y31	Z31	X32	Y32	Z32	X33	Y33	Z33	X34	Y34	Z34	X35	Y35	Z35	X36	Y36	Z36	X37	Y37	Z37	X38	Y38	Z38	X39	Y39	Z39	X40	Y40	Z40	X41	Y41	Z41	X42	Y42	Z42	X43	Y43	Z43	X44	Y44	Z44	X45	Y45	Z45	X46	Y46	Z46	X47	Y47	Z47	X48	Y48	Z48	X49	Y49	Z49	X50	Y50	Z50	X51	Y51	Z51	X52	Y52	Z52	X53	Y53	Z53	X54	Y54	Z54	X55	Y55	Z55	X56	Y56	Z56	X57	Y57	Z57	X58	Y58	Z58	X59	Y59	Z59

498	2.49	1371.7	1680.7	17.65	1374.9	1672	-81.21	1383.7	1414.6	-7.9628	1451.8	1256	-2.4638	1332	992.3	-181.14	1338.3	1003.7	192.34	1264.1	1505.8	154.69	1236.2	1346.6	281.08	1238.3	1200	336.72	1264.2	1050.1	361.48	1283.5	928.56	299.25	1274.9	937.05	380.55	1300.9	848.35	351.44	1270.2	1473.6	-192.65	1252.7	1295.1	-277.67	1266.2	1130.1	-324.32	1321.7	1001.3	-329.75	1402.6	898.78	-266.04	1365.8	870.97	-324.31	1437.6	820.68	-301.29	1378.9	645.66	228.64	1392.8	749.8	221.28	1406.6	535.07	70.916	1420.1	407.65	157.86	1341.1	255.55	140.55	1356.8	338.42	205.82	1380.6	331.35	149.66	1269.8	761.77	-191.36	1277.9	594.21	-156.74	1329.7	685.12	-158.49	1277.3	507.51	6.7543	1318.9	384.02	-81.458	1273.9	295.56	-114.13	1303.8	303.81	-59.803	1328.6	36.919	-24.577	1341.3	723	232.77	1396.2	57.441	166	1360.1	57.237	125.12	1272	678.71	-172.91	1301.6	800.53	234.06	1388.9	539.92	224.68	1179.3	1126.2	248.8	1259.4	143.75	79.697	1259.9	25.11	-101.2	1230.5	1583.5	-91.347	1280.9	221.57	-40.849	1155.1	134	106.06	1383	24.382	-64.874	1260.8	509.48	-150.05	1121.7	1384.7	98.914	1080.8	1038.9	37.374	1190	1495	-17.192	1200.3	86.39	50.47	1124.6	1180.4	-4.001	1089.3	1050.4	-48.039	1170	76.661	-34.974	1119.5	52.273	24.387	1242.2	1602.6	57.946	1216	1065.9	-227.92
499	2.495	1377.7	1680.6	17.735	1380.9	1671.9	-81.134	1389.5	1414.5	-8.0305	1457.6	1255.8	-2.7236	1337.2	992.29	-181.49	1345	1003.4	191.32	1270.1	1505.5	154.71	1241.6	1346.5	281.07	1243	1199.8	336.67	1267.8	1049.7	361.49	1286.3	927.98	299.41	1277.5	936.52	380.66	1302.9	847.59	351.59	1276	1473.6	-192.68	1259.9	1295.1	-277.91	1275.3	1130.3	-324.86	1332.3	1002.2	-330.11	1413.9	900.5	-266.07	1377.8	872.3	-324.55	1450.1	822.83	-301.13	1386.9	646.67	227.93	1400.1	750.95	220.94	1415.7	536.33	70.126	1432.5	409.02	157.45	1358.2	254.52	140.49	1370.9	338.08	205.41	1395.3	331.5	149.43	1273.5	761.53	-191.62	1280.9	593.96	-156.83	1333.3	684.54	-158.67	1280.1	507.21	6.7598	1320.8	383.46	-81.44	1275.3	295.25	-114.08	1305.2	303.36	-59.772	1328.7	36.905	-24.623	1348.7	723.73	232.38	1418.9	58.482	167	1383.1	56.774	126.03	1275.5	678.53	-173.12	1308.4	800.96	233.93	1397.8	540.73	223.83	1183.5	1126.4	248.76	1280.1	140.09	79.736	1260	25.128	-101.16	1236.4	1583.4	-91.267	1282	221.23	-40.782	1176	127.33	105.59	1383.1	24.281	-64.955	1263.4	509.26	-150.04	1127.6	1384.6	98.842	1086.7	1038.9	37.681	1195.9	1494.9	-17.169	1200.6	86.497	50.613	1130.4	1180.3	-3.9069	1094.8	1050.5	-47.762	1170.3	76.893	-34.84	1119.7	52.643	24.576	1248.2	1602.4	58.032	1225.2	1065.5	-228.88
500	2.5	1383.7	1680.3	17.827	1386.8	1671.8	-81.049	1395.4	1414.3	-8.0929	1463.3	1255.6	-2.9715	1342.4	992.27	-181.78	1351.8	1003.2	190.27	1276.1	1505.3	154.74	1247.1	1346.3	281.06	1247.7	1199.6	336.63	1271.3	1049.2	361.51	1289.1	927.4	299.55	1280.2	935.98	380.77	1304.8	846.82	351.71	1281.8	1473.6	-192.7	1267	1295	-278.14	1284.5	1130.5	-325.38	1342.8	1003	-330.44	1425.3	902.21	-266.06	1389.8	873.62	-324.75	1462.5	824.99	-300.94	1394.7	647.55	227.19	1407.2	751.97	220.6	1424.6	537.44	69.296	1444.7	410.35	157.04	1375.2	253.58	140.45	1385	337.77	205.01	1409.9	331.69	149.2	1277.3	761.28	-191.85	1284	593.69	-156.93	1336.8	683.94	-158.85	1282.9	506.9	6.7541	1322.8	382.88	-81.422	1276.8	294.93	-114.02	1306.8	302.89	-59.738	1328.8	36.886	-24.665	1356	724.34	231.99	1441.6	59.694	168.01	1406.2	56.549	126.93	1279	678.34	-173.34	1315.3	801.29	233.83	1406.6	541.42	222.95	1187.7	1126.6	248.71	1301	136.61	79.781	1260	25.148	-101.11	1242.3	1583.3	-91.187	1283	220.88	-40.711	1197.1	120.83	105.13	1383.3	24.185	-65.04	1266	509.02	-150.02	1133.5	1384.5	98.799	1092.5	1038.9	38.007	1201.8	1494.7	-17.139	1200.9	86.604	50.77	1136.2	1180.2	-3.7698	1100.3	1050.6	-47.449	1170.6	77.135	-34.697	1119.9	53.028	24.774	1254.3	1602.1	58.121	1234.4	1065	-229.82
501	2.505	1389.7	1680.1	17.929	1392.8	1671.6	-80.956	1401.3	1414.1	-8.1501	1469.1	1255.3	-3.2081	1347.6	992.23	-182.02	1358.5	1002.8	189.19	1282.2	1505	154.77	1252.5	1346.1	281.06	1252.3	1199.4	336.6	1274.9	1048.8	361.52	1291.9	926.8	299.69	1282.8	935.42	380.86	1306.8	846.05	351.81	1287.6	1473.5	-192.71	1274.2	1294.8	-278.34	1293.6	1130.6	-325.86	1353.3	1003.8	-330.73	1436.6	903.9	-266.03	1401.7	874.95	-324.91	1474.9	827.14	-300.71	1402.4	648.3	226.43	1414.3	752.85	220.24	1433.2	538.4	68.428	1456.7	411.66	156.63	1392.1	252.74	140.42	1399	337.48	204.61	1424.4	331.93	148.98	1281	761	-192.03	1287.1	593.39	-157.02	1340.4	683.33	-159.01	1285.8	506.57	6.7355	1324.9	382.28	-81.405	1278.3	294.59	-113.97	1308.3	302.41	-59.702	1328.9	36.864	-24.705	1363.3	724.84	231.6	1464.3	61.095	169.02	1429.1	56.577	127.82	1282.6	678.13	-173.56	1322	801.52	233.75	1415.1	541.97	222.03	1191.9	1126.7	248.67	1321.9	133.34	79.832	1260	25.17	-101.05	1248.2	1583.2	-91.109	1284.2	220.52	-40.638	1218.3	114.54	104.68	1383.4	24.093	-65.132	1268.6	508.76	-150.01	1139.4	1384.4	98.786	1098.3	1038.8	38.355	1207.7	1494.5	-17.101	1201.3	86.716	50.938	1142	1180.1	-3.5887	1105.8	1050.6	-47.099	1170.9	77.388	-34.545	1120.2	53.431	24.981	1260.3	1601.8	58.212	1243.7	1064.5	-230.74
502	2.51	1395.7	1679.7	18.04	1398.7	1671.3	-80.853	1407.2	1413.8	-8.2023	1474.9	1254.9	-3.434	1352.8	992.18	-182.22	1365.4	1002.4	188.12	1288.2	1504.7	154.8	1257.9	1345.9	281.07	1257	1199.1	336.57	1278.5	1048.3	361.54	1294.7	926.2	299.81	1285.5	934.86	380.94	1308.7	845.26	351.9	1293.4	1473.3	-192.71	1281.4	1294.6	-278.52	1302.8	1130.7	-326.3	1363.8	1004.6	-330.99	1447.8	905.58	-265.95	1413.5	876.27	-325.04	1487.1	829.3	-300.44	1410	648.92	225.66	1421.2	753.58	219.86	1441.7	539.2	67.526	1468.6	412.95	156.21	1409	252.02	140.4	1412.9	337.21	204.2	1438.8	332.21	148.76	1284.9	760.71	-192.18	1290.3	593.08	-157.11	1344	682.7	-159.18	1288.9	506.23	6.7046	1327	381.66	-81.39	1279.8	294.24	-113.91	1310	301.92	-59.665	1329	36.838	-24.742	1370.4	725.22	231.21	1486.8	62.702	170.01	1452.1	56.875	128.69	1286.2	677.92	-173.79	1328.7	801.65	233.69	1423.5	542.38	221.08	1196.1	1126.8	248.63	1342.9	130.3	79.887	1260	25.193	-100.99	1254.2	1583	-91.03	1285.3	220.15	-40.563	1239.8	108.47	104.26	1383.5	24.005	-65.231	1271.3	508.49	-149.99	1145.4	1384.2	98.801	1104.2	1038.7	38.73	1213.6	1494.3	-17.058	1201.6	86.838	51.112	1147.8	1179.9	-3.3626	1111.3	1050.6	-46.707	1171.3	77.65	-34.383	1120.4	53.852	25.196	1266.3	1601.4	58.305	1252.9	1063.9	-231.62
503	2.515	1401.8	1679.4	18.162	1404.7	1671	-80.74	1413.1	1413.4	-8.2497	1480.6	1254.4	-3.6496	1358.1	992.11	-182.37	1372.2	1002	187.07	1294.3	1504.3	154.84	1263.3	1345.7	281.08	1261.6	1198.8	336.56	1282	1047.8	361.55	1297.4	925.58	299.92	1288.2	934.29	381.01	1310.6	844.48	351.97	1299.3	1473.1	-192.7	1288.7	1294.4	-278.69	1311.9	1130.9	-326.71	1374.3	1005.4	-331.21	1459	907.24	-265.84	1425.3	877.6	-325.13	1499.3	831.46	-300.14	1417.4	649.4	224.87	1428.1	754.15	219.48	1449.9	539.81	66.592	1480.3	414.22	155.78	1425.9	251.43	140.38	1426.7	336.97	203.79	1453.1	332.54	148.54	1288.7	760.41	-192.28	1293.5	592.74	-157.21	1347.6	682.05	-159.34	1292	505.87	6.6631	1329.1	381.01	-81.379	1281.4	293.88	-113.85	1311.6	301.4	-59.63	1329.1	36.809	-24.777	1377.4	725.47	230.83	1509.3	64.535	170.97	1475	57.459	129.51	1289.8	677.69	-174.01	1335.4	801.67	233.64	1431.7	542.64	220.12	1200.4	1126.9	248.58	1363.9	127.5	79.942	1260.1	25.218	-100.92	1260.2	1582.7	-90.951	1286.5	219.77	-40.488	1261.3	102.65	103.87	1383.6	23.921	-65.337	1274.1	508.19	-149.98	1151.3	1384	98.844	1110	1038.5	39.133	1219.6	1494	-17.009	1201.9	86.971	51.29	1153.6	1179.7	-3.091	1116.8	1050.5	-46.27	1171.6	77.923	-34.211	1120.7	54.291	25.421	1272.4	1601	58.399	1262.1	1063.4	-232.48
